<svg version="1.1" id="Layer_1" xmlns="http://www.w3.org/2000/svg" xmlns:xlink="http://www.w3.org/1999/xlink" x="0px" y="0px"
	 width="100%" viewBox="0 0 225 225" enable-background="new 0 0 225 225" xml:space="preserve">
<path fill="#fcbe03" opacity="1.000000" stroke="none" 
	d="
M152.000000,226.000000 
	C101.333336,226.000000 51.166672,226.000000 1.000007,226.000000 
	C1.000005,151.000000 1.000005,76.000015 1.000002,1.000017 
	C75.999992,1.000011 150.999985,1.000011 225.999969,1.000006 
	C225.999985,75.999985 225.999985,150.999969 226.000000,225.999969 
	C201.500000,226.000000 177.000000,226.000000 152.000000,226.000000 
M69.371742,172.157272 
	C88.023254,185.601822 108.682472,189.946472 130.905014,184.366348 
	C168.168365,175.009491 192.037613,138.763260 185.750366,101.884995 
	C182.479980,82.702339 173.289825,66.946899 157.895065,54.964424 
	C142.553711,43.023510 124.934227,38.682308 105.817726,40.227829 
	C93.314743,41.238667 81.864334,45.602528 71.517036,52.729134 
	C30.843784,80.742477 28.668718,141.033798 69.371742,172.157272 
z"/>
<path fill="#595A5B" opacity="1.000000" stroke="none" 
	d="
M69.068932,171.968231 
	C28.668718,141.033798 30.843784,80.742477 71.517036,52.729134 
	C81.864334,45.602528 93.314743,41.238667 105.817726,40.227829 
	C124.934227,38.682308 142.553711,43.023510 157.895065,54.964424 
	C173.289825,66.946899 182.479980,82.702339 185.750366,101.884995 
	C192.037613,138.763260 168.168365,175.009491 130.905014,184.366348 
	C108.682472,189.946472 88.023254,185.601822 69.068932,171.968231 
M121.011772,89.170685 
	C128.939606,93.420586 128.939606,93.420586 136.038071,83.198105 
	C133.599899,81.306969 131.408951,78.551811 128.618362,77.647911 
	C121.259705,75.264328 116.211380,71.841728 119.091530,63.233322 
	C108.825623,60.705116 107.582062,61.459293 107.473404,70.639206 
	C107.437675,73.657486 106.014862,74.495506 103.592728,75.408043 
	C95.582489,78.425858 90.942390,84.212997 89.960655,92.848839 
	C88.908920,102.100479 92.921631,108.502518 100.794785,112.961174 
	C106.146584,115.991974 111.435333,119.144485 116.639893,122.421089 
	C119.899818,124.473427 121.376251,127.464478 120.173065,131.400040 
	C119.002007,135.230515 116.088333,136.867401 112.498260,136.216888 
	C106.310783,135.095718 100.232193,133.373611 93.293282,131.708160 
	C91.683723,134.248444 89.408981,137.838501 86.760277,142.018799 
	C90.579483,144.114456 93.857376,147.057343 97.535263,147.695694 
	C105.467827,149.072510 109.060844,152.773422 107.546982,160.879379 
	C107.504005,161.109528 107.883545,161.418594 108.076355,161.706177 
	C111.503090,161.706177 114.933876,161.706177 118.865158,161.706177 
	C118.865158,158.648773 118.563004,155.809982 118.989502,153.085266 
	C119.210869,151.671005 120.455605,149.713745 121.691055,149.273712 
	C130.811829,146.025177 135.919830,139.653244 136.905289,130.157715 
	C137.944717,120.142128 132.990082,113.371109 124.503098,108.735756 
	C119.396149,105.946480 114.058067,103.462296 109.371582,100.081711 
	C107.595901,98.800819 106.216766,95.098122 106.742462,93.029251 
	C107.260681,90.989822 110.191078,88.839844 112.480110,88.175941 
	C114.801750,87.502571 117.633377,88.587517 121.011772,89.170685 
z"/>
<path fill="#F9D83C" opacity="1.000000" stroke="none" 
	d="
M120.626709,89.036530 
	C117.633377,88.587517 114.801750,87.502571 112.480110,88.175941 
	C110.191078,88.839844 107.260681,90.989822 106.742462,93.029251 
	C106.216766,95.098122 107.595901,98.800819 109.371582,100.081711 
	C114.058067,103.462296 119.396149,105.946480 124.503098,108.735756 
	C132.990082,113.371109 137.944717,120.142128 136.905289,130.157715 
	C135.919830,139.653244 130.811829,146.025177 121.691055,149.273712 
	C120.455605,149.713745 119.210869,151.671005 118.989502,153.085266 
	C118.563004,155.809982 118.865158,158.648773 118.865158,161.706177 
	C114.933876,161.706177 111.503090,161.706177 108.076355,161.706177 
	C107.883545,161.418594 107.504005,161.109528 107.546982,160.879379 
	C109.060844,152.773422 105.467827,149.072510 97.535263,147.695694 
	C93.857376,147.057343 90.579483,144.114456 86.760277,142.018799 
	C89.408981,137.838501 91.683723,134.248444 93.293282,131.708160 
	C100.232193,133.373611 106.310783,135.095718 112.498260,136.216888 
	C116.088333,136.867401 119.002007,135.230515 120.173065,131.400040 
	C121.376251,127.464478 119.899818,124.473427 116.639893,122.421089 
	C111.435333,119.144485 106.146584,115.991974 100.794785,112.961174 
	C92.921631,108.502518 88.908920,102.100479 89.960655,92.848839 
	C90.942390,84.212997 95.582489,78.425858 103.592728,75.408043 
	C106.014862,74.495506 107.437675,73.657486 107.473404,70.639206 
	C107.582062,61.459293 108.825623,60.705116 119.091530,63.233322 
	C116.211380,71.841728 121.259705,75.264328 128.618362,77.647911 
	C131.408951,78.551811 133.599899,81.306969 136.038071,83.198105 
	C128.939606,93.420586 128.939606,93.420586 120.626709,89.036530 
z"/>
</svg>